<svg width="165" height="24" viewBox="0 0 165 24" fill="none" xmlns="http://www.w3.org/2000/svg">
<path d="M9.4 0.535999C11.768 0.535999 13.8373 1.00533 15.608 1.944C17.3787 2.88267 18.744 4.20533 19.704 5.912C20.6853 7.59733 21.176 9.54933 21.176 11.768C21.176 13.9653 20.6853 15.9173 19.704 17.624C18.744 19.3307 17.368 20.6533 15.576 21.592C13.8053 22.5307 11.7467 23 9.4 23H0.984V0.535999H9.4ZM9.048 18.264C11.1173 18.264 12.728 17.6987 13.88 16.568C15.032 15.4373 15.608 13.8373 15.608 11.768C15.608 9.69867 15.032 8.088 13.88 6.936C12.728 5.784 11.1173 5.208 9.048 5.208H6.456V18.264H9.048ZM39.218 19.032H30.834L29.49 23H23.762L31.89 0.535999H38.226L46.354 23H40.562L39.218 19.032ZM37.81 14.808L35.026 6.584L32.274 14.808H37.81ZM55.2998 0.535999V23H49.8278V0.535999H55.2998ZM65.7373 18.776H72.9053V23H60.2653V0.535999H65.7373V18.776ZM95.7793 0.535999L88.0033 15.576V23H82.5312V15.576L74.7553 0.535999H80.9633L85.3153 9.944L89.6353 0.535999H95.7793ZM112.744 9.496V14.04H98.664V9.496H112.744ZM126.963 0.535999C129.331 0.535999 131.4 1.00533 133.171 1.944C134.941 2.88267 136.307 4.20533 137.267 5.912C138.248 7.59733 138.739 9.54933 138.739 11.768C138.739 13.9653 138.248 15.9173 137.267 17.624C136.307 19.3307 134.931 20.6533 133.139 21.592C131.368 22.5307 129.309 23 126.963 23H118.547V0.535999H126.963ZM126.611 18.264C128.68 18.264 130.291 17.6987 131.443 16.568C132.595 15.4373 133.171 13.8373 133.171 11.768C133.171 9.69867 132.595 8.088 131.443 6.936C130.291 5.784 128.68 5.208 126.611 5.208H124.019V18.264H126.611ZM153.421 23.224C151.309 23.224 149.367 22.7333 147.597 21.752C145.847 20.7707 144.45 19.4053 143.405 17.656C142.38 15.8853 141.868 13.9013 141.868 11.704C141.868 9.50667 142.38 7.53333 143.405 5.784C144.45 4.03467 145.847 2.66933 147.597 1.688C149.367 0.706666 151.309 0.216 153.421 0.216C155.533 0.216 157.463 0.706666 159.213 1.688C160.983 2.66933 162.37 4.03467 163.373 5.784C164.397 7.53333 164.909 9.50667 164.909 11.704C164.909 13.9013 164.397 15.8853 163.373 17.656C162.349 19.4053 160.962 20.7707 159.213 21.752C157.463 22.7333 155.533 23.224 153.421 23.224ZM153.421 18.232C155.213 18.232 156.642 17.6347 157.708 16.44C158.797 15.2453 159.341 13.6667 159.341 11.704C159.341 9.72 158.797 8.14133 157.708 6.968C156.642 5.77333 155.213 5.176 153.421 5.176C151.607 5.176 150.157 5.76267 149.069 6.936C148.002 8.10933 147.469 9.69867 147.469 11.704C147.469 13.688 148.002 15.2773 149.069 16.472C150.157 17.6453 151.607 18.232 153.421 18.232Z" fill="url('#paint0_linear_4520_575')"></path>
<defs>
<linearGradient id="paint0_linear_4520_575" x1="-1" y1="-5" x2="39.596" y2="85.624" gradientUnits="userSpaceOnUse">
<stop stop-color="#EB0055"></stop>
<stop offset="1" stop-color="#FFFA80"></stop>
</linearGradient>
</defs>
</svg>
