<svg width="208" height="48" viewBox="0 0 208 48" fill="none" xmlns="http://www.w3.org/2000/svg">
<path d="M48.5449 24C48.5449 37.2542 37.6771 48 24.2724 48C10.8661 48 0 37.2542 0 24C0 10.7442 10.867 0 24.2724 0C37.6771 0 48.5449 10.745 48.5449 24Z" fill="#DA552F"></path>
<path d="M27.5082 24H20.6316V16.8H27.5082C27.9863 16.8 28.4598 16.8931 28.9015 17.074C29.3432 17.255 29.7446 17.5201 30.0827 17.8544C30.4208 18.1887 30.6889 18.5856 30.8719 19.0223C31.0549 19.4591 31.1491 19.9272 31.1491 20.4C31.1491 20.8728 31.0549 21.3409 30.8719 21.7777C30.6889 22.2144 30.4208 22.6113 30.0827 22.9456C29.7446 23.2799 29.3432 23.545 28.9015 23.726C28.4598 23.9069 27.9863 24 27.5082 24ZM27.5082 12H15.7771V36H20.6316V28.8H27.5082C32.2 28.8 36.0035 25.0391 36.0035 20.4C36.0035 15.7609 32.2 12 27.5082 12Z" fill="white"></path>
<path d="M74.0434 21.0666C74.0434 19.746 73.0174 18.9457 71.6842 18.9457H68.1106V23.1629H71.685C73.0182 23.1629 74.0442 22.3627 74.0442 21.0666H74.0434ZM64.7262 31.9996V15.9999H72.1599C75.6165 15.9999 77.4975 18.3096 77.4975 21.0666C77.4975 23.7999 75.5924 26.1088 72.1599 26.1088H68.1106V31.9996H64.7271H64.7262ZM79.5578 31.9996V20.3353H82.5819V21.8669C83.4162 20.877 84.8232 20.053 86.2535 20.053V22.9742C86.0377 22.9274 85.7762 22.9044 85.4192 22.9044C84.4181 22.9044 83.0825 23.4691 82.5819 24.2012V31.9996H79.557H79.5578ZM96.434 26.0144C96.434 24.2472 95.383 22.7156 93.4771 22.7156C91.5936 22.7156 90.5468 24.2472 90.5468 26.0152C90.5468 27.8054 91.5936 29.337 93.4771 29.337C95.383 29.337 96.4331 27.8054 96.4331 26.0144M87.3999 26.0144C87.3999 22.787 89.6877 20.053 93.4771 20.053C97.2906 20.053 99.5784 22.7862 99.5784 26.0144C99.5784 29.2426 97.2906 31.9996 93.4771 31.9996C89.6877 31.9996 87.3999 29.2426 87.3999 26.0144ZM109.762 28.0409V24.0116C109.262 23.2565 108.166 22.7156 107.164 22.7156C105.426 22.7156 104.234 24.0584 104.234 26.0152C104.234 27.9933 105.426 29.337 107.164 29.337C108.166 29.337 109.262 28.7952 109.762 28.0401V28.0409ZM109.762 31.9996V30.2562C108.856 31.3865 107.618 31.9996 106.211 31.9996C103.328 31.9996 101.112 29.8327 101.112 26.0144C101.112 22.3159 103.281 20.053 106.211 20.053C107.569 20.053 108.856 20.6193 109.762 21.7963V15.9999H112.812V31.9996H109.762ZM123.592 31.9996V30.2792C122.807 31.1279 121.424 31.9996 119.541 31.9996C117.016 31.9996 115.825 30.633 115.825 28.4177V20.3353H118.849V27.2398C118.849 28.819 119.684 29.337 120.97 29.337C122.138 29.337 123.068 28.7008 123.592 28.0401V20.3353H126.618V31.9996H123.592ZM128.891 26.0144C128.891 22.5276 131.465 20.053 134.993 20.053C137.352 20.053 138.781 21.0666 139.544 22.1033L137.565 23.9402C137.018 23.1391 136.184 22.7156 135.135 22.7156C133.3 22.7156 132.014 24.0354 132.014 26.0152C132.014 27.9933 133.3 29.337 135.135 29.337C136.184 29.337 137.018 28.8658 137.565 28.0877L139.544 29.9263C138.781 30.9629 137.352 31.9996 134.993 31.9996C131.465 31.9996 128.891 29.5257 128.891 26.0144ZM142.147 28.8658V22.9512H140.241V20.3353H142.147V17.2245H145.174V20.3353H147.507V22.9512H145.174V28.0647C145.174 28.7952 145.553 29.337 146.222 29.337C146.673 29.337 147.105 29.172 147.269 28.984L147.914 31.2683C147.462 31.6705 146.651 31.9996 145.387 31.9996C143.266 31.9996 142.147 30.9162 142.147 28.8658ZM166.894 31.9996V25.0951H159.386V31.9996H156.004V15.9999H159.386V22.1731H166.894V16.0007H170.301V31.9996H166.894ZM181.132 31.9996V30.2792C180.346 31.1279 178.964 31.9996 177.081 31.9996C174.555 31.9996 173.364 30.633 173.364 28.4177V20.3353H176.389V27.2398C176.389 28.819 177.223 29.337 178.51 29.337C179.677 29.337 180.608 28.7008 181.132 28.0401V20.3353H184.158V31.9996H181.132ZM194.935 31.9996V24.8374C194.935 23.2582 194.103 22.7164 192.815 22.7164C191.624 22.7164 190.719 23.3763 190.193 24.0363V32.0004H187.168V20.3353H190.193V21.7963C190.933 20.9484 192.362 20.053 194.221 20.053C196.771 20.053 197.986 21.4664 197.986 23.6809V31.9996H194.936H194.935ZM201.592 28.8658V22.9512H199.688V20.3353H201.593V17.2245H204.621V20.3353H206.955V22.9512H204.621V28.0647C204.621 28.7952 205.001 29.337 205.668 29.337C206.121 29.337 206.551 29.172 206.717 28.984L207.36 31.2683C206.908 31.6705 206.097 31.9996 204.834 31.9996C202.713 31.9996 201.593 30.9162 201.593 28.8658" fill="#DA552F"></path>
</svg>
