<svg width="114" height="48" viewBox="0 0 114 48" fill="none" xmlns="http://www.w3.org/2000/svg">
<g clip-path="url(#clip0_4306_2085)">
<path d="M0 25.5438H7.23433C10.6079 25.5438 13.4305 25.7623 15.3786 28.0048C16.6122 29.4384 16.8077 31.0563 16.8077 32.21C16.8077 34.8279 15.6737 37.0398 13.8216 38.1901C12.101 39.2484 9.73339 39.2484 8.49982 39.2484H5.0942V48H0V25.5438ZM4.9663 35.6677H6.97832C8.59938 35.6677 11.6175 35.6677 11.6175 32.2407C11.6175 29.1892 8.92291 29.1892 7.49739 29.1892H4.9663V35.6677Z" fill="#3548FE"/>
<path d="M19.1462 25.4107H28.1188C30.7098 25.3798 33.3327 25.3798 35.2139 26.9408C36.6726 28.1594 37.2547 29.8162 37.2547 31.2847C37.2547 35.502 33.496 36.5015 32.3637 36.813C35.8954 37.1246 36.1544 39.062 36.5733 41.9991C36.9282 44.6556 37.1234 45.7471 37.2866 46.3735C37.5457 47.3737 37.7409 47.6235 38 48.0001H32.4596C32.2325 46.7501 31.519 41.0335 31.1961 40.1573C30.7418 38.8775 29.5101 38.8775 28.6689 38.8775H24.2642V48.0001H19.1462V25.4107ZM24.101 35.2829H28.1507C28.7328 35.2829 29.9005 35.2829 30.7098 34.6565C31.0647 34.4066 32.0053 33.6261 32.0053 32.0309C32.0053 30.5009 31.2279 29.7819 30.7736 29.5013C29.9963 28.9707 29.0558 28.9707 27.4692 28.9707H24.101V35.2829Z" fill="#3548FE"/>
<path d="M80.7785 3.89056H73.8077V0.140381H92.8077V3.89056H85.8334V22.7369H80.7746V3.89056H80.7785Z" fill="#3548FE"/>
<path d="M95.1461 0.00710689H104.119C106.71 -0.0236531 109.332 -0.023653 111.214 1.53728C112.673 2.75593 113.254 4.41268 113.254 5.88124C113.254 10.0985 109.496 11.0981 108.364 11.4096C111.895 11.7212 112.154 13.6587 112.573 16.5957C112.928 19.252 113.123 20.344 113.286 20.9705C113.546 21.97 113.741 22.2199 114 22.5965H108.459C108.232 21.347 107.519 15.6304 107.196 14.754C106.742 13.4737 105.51 13.4738 104.669 13.4738H100.264V22.5965H95.1461V0.00710689ZM100.101 9.87948H104.151C104.732 9.87948 105.9 9.87948 106.71 9.253C107.064 9.00319 108.005 8.22263 108.005 6.62749C108.005 5.09733 107.228 4.37847 106.774 4.09781C105.996 3.56716 105.056 3.56716 103.469 3.56716H100.101V9.87948Z" fill="#3548FE"/>
<path d="M48.358 33.7055C48.358 34.761 48.358 36.0079 48.1832 37.0121C48.0368 37.6816 47.7906 39.2631 46.0814 41.0155C44.3293 42.8126 43.4301 41.8629 43.4301 39.8649C43.4301 39.5737 43.4301 39.8649 43.4301 39.8649V39.0482L39.0231 43.2088V44.2608C39.0231 44.2608 39.0231 43.4237 39.0231 44.2608C39.0231 45.098 39.0052 46.5425 40.1258 47.2262C42.7877 48.8381 48.8469 40.7904 49.6604 39.5124C52.2975 35.3451 52.9077 32.2981 52.9077 29.217V16.2808L48.358 20.7932V33.7055Z" fill="#3548FE"/>
<path d="M67.6293 14.7866C67.5438 17.5361 65.7482 20.4564 63.8673 22.3247C59.496 26.6625 59.496 20.9755 59.496 19.7835C59.496 15.6507 60.8854 10.9406 64.2128 7.63435C67.127 4.74132 67.5866 6.8385 67.5866 7.80511C67.5866 8.57017 67.5866 8.61119 67.5866 8.61119L72.1679 4.17436L72.1715 3.25555C72.1715 -0.740616 68.9581 -0.21467 64.3873 4.32465C58.5127 10.1584 54.8077 18.0518 54.8077 24.4082C54.8077 29.3744 57.1518 32.1513 64.3588 24.999C66.2684 23.1034 68.6126 20.3573 70.4651 16.689C72.143 13.3588 72.2606 11.3846 72.3461 10.1038L67.6293 14.7866Z" fill="#3548FE"/>
</g>
<defs>
<clipPath id="clip0_4306_2085">
<rect width="114" height="48" fill="white"/>
</clipPath>
</defs>
</svg>
